# xmcd
#
# Track frame offsets:
# 150
# 20197
# 35250
# 60120
# 73315
# 83624
# 100041
# 115327
# 139148
# 159207
# 177605
# 195902
# 216917
# 239599
# 263857
# 289785
#
# Disc length: 4253 seconds
#
#
# Revision: 0
# Processed by: cddbd v1.5.2PL0 Copyright (c) Steve Scherf et al.
# Submitted via: FreeRIP 2.35 
#
DISCID=e2109b10
DTITLE=future beats mixed by chris renegade - 
DYEAR=0005
DGENRE=
TTITLE0=spor  CYBERPUNK
TTITLE1=ewun  HATE MACHINE
TTITLE2=desimal  MANTRA
TTITLE3=dj ink  DON DARKO
TTITLE4=stomping grounds  PSIDREAM
TTITLE5=noisia, phace and c4c  DEAD AIR
TTITLE6=vicious circle and corrupt souls  SHADROCK
TTITLE7=chase and status BARBARIANS (prolix rmx)
TTITLE8=spor  LOSE IT
TTITLE9=teebee  THE FORCE
TTITLE10=evol intent and corrupt souls  FILTH BATH
TTITLE11=the militia  PARANOIA (gridlock rmx)
TTITLE12=pendulem and bulletproof  MINDSEYE
TTITLE13=konflict  MESSIAH (spor rmx)
TTITLE14=evol intent ft. blip  FLIPSIDE
TTITLE15=quadrant  ARACHNID
EXTD=
EXTT0=
EXTT1=
EXTT2=
EXTT3=
EXTT4=
EXTT5=
EXTT6=
EXTT7=
EXTT8=
EXTT9=
EXTT10=
EXTT11=
EXTT12=
EXTT13=
EXTT14=
EXTT15=
PLAYORDER=
